# xmcd CD database file
#
# Track frame offsets:
#	150
#	14237
#	35150
#	58342
#	73242
#	87982
#	103745
#	115230
#	132332
#	152165
#	167680
#	183252
#	197440
#	216305
#	231147
#	243232
#
# Disc length: 3459 seconds
#
# Revision: 0
# Processed by: cddbd v1.4PL0 Copyright (c) Steve Scherf et al.
# Submitted via: CDex 1.50
#
DISCID=ed0d8110
DTITLE=Chuck Wayne - String Fever
DYEAR=1957
DGENRE=Jazz
TTITLE0=Lullaby In Rhythm
TTITLE1=Embraceable You
TTITLE2=Love For Sale
TTITLE3=Along With Me
TTITLE4=Carmel
TTITLE5=Body and Soul
TTITLE6=Snuggled On Your Shoulder
TTITLE7=How About You
TTITLE8=Lover Man
TTITLE9=What a Difference a Day Makes
TTITLE10=Rockabye Baby
TTITLE11=Lullaby In Rhythm (alt)
TTITLE12=Love For Sale (alt)
TTITLE13=Carmel (alt)
TTITLE14=Snuggled On Your Shoulder (alt)
TTITLE15=How About You (alt)
EXTD=YEAR: 1957
EXTT0=
EXTT1=
EXTT2=
EXTT3=
EXTT4=
EXTT5=
EXTT6=
EXTT7=
EXTT8=
EXTT9=
EXTT10=
EXTT11=
EXTT12=
EXTT13=
EXTT14=
EXTT15=
PLAYORDER=
